<svg xmlns="http://www.w3.org/2000/svg" width="248" height="92" viewBox="0 0 248 92"><defs><pattern id="hatch" width="16" height="16" patternUnits="userSpaceOnUse"><path d="M-4 20L20 -4" stroke="rgba(10, 10, 10, 0.36)" stroke-width="1.2" stroke-linecap="square"/></pattern></defs><path d="M11.224 76 2.76 11.6H14.812L21.068 67.536H22.724L30.82 11.6H51.796L59.892 67.536H61.548L67.804 11.6H79.856L71.392 76H50.416L42.136 18.776H40.48L32.2 76Z" fill="url(#hatch)" stroke="#0a0a0a" stroke-width="2" paint-order="fill stroke"/><path d="M88.688 76V11.6H130.088V22.64H100.832V38.004H127.512V49.044H100.832V64.96H130.64V76Z" fill="url(#hatch)" stroke="#0a0a0a" stroke-width="2" paint-order="fill stroke"/><path d="M137.816 76V65.328H146.28V22.272H137.816V11.6H170.936Q176.824 11.6 181.194 13.578Q185.564 15.556 188.002 19.19Q190.44 22.824 190.44 27.884V28.804Q190.44 33.22 188.784 36.026Q187.128 38.832 184.874 40.35Q182.62 41.868 180.596 42.512V44.168Q182.62 44.72 185.012 46.238Q187.404 47.756 189.106 50.608Q190.808 53.46 190.808 58.06V58.98Q190.808 64.316 188.324 68.134Q185.84 71.952 181.47 73.976Q177.1 76 171.304 76ZM158.424 64.96H169.832Q173.788 64.96 176.226 63.028Q178.664 61.096 178.664 57.508V56.588Q178.664 53 176.272 51.068Q173.88 49.136 169.832 49.136H158.424ZM158.424 38.096H169.648Q173.42 38.096 175.858 36.164Q178.296 34.232 178.296 30.828V29.908Q178.296 26.412 175.904 24.526Q173.512 22.64 169.648 22.64H158.424Z" fill="url(#hatch)" stroke="#0a0a0a" stroke-width="2" paint-order="fill stroke"/></svg>
